PathFileType	4	(X/Y/Z)
DataRate	CameraRate	NumFrames	NumMarkers	Units	OrigDataRate	OrigDataStartFrame	OrigNumFrames	
  100.0	  100.0	     4	     56	     mm	  100.0	      11	     86
Frame#	Time	LASI			RASI			LPSI			RPSI			RTH1			RTH2			RTH3			RLFC			RMFC			LTH1			LTH2			LTH3			LLFC			LMFC			RTB1			RTB2			RTB3			RLMAL			RMMAL			LTB1			LTB2			LTB3			LMMAL			LLMAL			RCAL			RTOE			RMT5			LCAL			LTOE			LMT5			LACR			RACR			CLAV			C7			LASH			LPSH			RASH			RPSH			RUA1			RUA2			RUA3			RLEL			RMEL			LUA1			LUA2			LUA3			LLEL			LMEL			RFAsuperior			RFAradius			RFAulna			LFAsuperior			LFAradius			LFAulna			RHJC			LHJC			
		X1	Y1	Z1	X2	Y2	Z2	X3	Y3	Z3	X4	Y4	Z4	X5	Y5	Z5	X6	Y6	Z6	X7	Y7	Z7	X8	Y8	Z8	X9	Y9	Z9	X10	Y10	Z10	X11	Y11	Z11	X12	Y12	Z12	X13	Y13	Z13	X14	Y14	Z14	X15	Y15	Z15	X16	Y16	Z16	X17	Y17	Z17	X18	Y18	Z18	X19	Y19	Z19	X20	Y20	Z20	X21	Y21	Z21	X22	Y22	Z22	X23	Y23	Z23	X24	Y24	Z24	X25	Y25	Z25	X26	Y26	Z26	X27	Y27	Z27	X28	Y28	Z28	X29	Y29	Z29	X30	Y30	Z30	X31	Y31	Z31	X32	Y32	Z32	X33	Y33	Z33	X34	Y34	Z34	X35	Y35	Z35	X36	Y36	Z36	X37	Y37	Z37	X38	Y38	Z38	X39	Y39	Z39	X40	Y40	Z40	X41	Y41	Z41	X42	Y42	Z42	X43	Y43	Z43	X44	Y44	Z44	X45	Y45	Z45	X46	Y46	Z46	X47	Y47	Z47	X48	Y48	Z48	X49	Y49	Z49	X50	Y50	Z50	X51	Y51	Z51	X52	Y52	Z52	X53	Y53	Z53	X54	Y54	Z54	X55	Y55	Z55	X56	Y56	Z56	

223	2.23000	724.97294	1022.89549	-613.70993	480.07331	1026.74680	-606.03689	646.07012	1045.92807	-776.14904	549.05710	1043.94611	-776.39959	405.55755	788.03999	-680.72207	410.29801	699.38619	-630.71528	419.01611	611.22413	-702.38153	415.65857	515.81561	-723.78289	523.33028	492.59559	-691.89977	787.66733	827.09612	-667.95633	789.18597	719.81540	-626.61249	781.32042	613.69242	-696.63572	783.81757	527.64499	-687.79270	671.34550	507.60749	-682.97577	449.80202	388.20389	-679.76574	399.36133	322.04838	-728.25960	446.47249	203.06169	-705.53673	411.72895	126.08699	-764.58306	484.77759	138.14962	-729.67639	750.24686	405.83261	-662.68196	808.07019	338.65073	-729.58560	761.81756	219.66093	-688.56076	728.44327	132.84884	-694.73058	799.86655	120.05221	-748.29811	466.69432	108.50141	-813.04256	465.00656	70.95250	-593.06017	368.03152	45.86305	-644.21426	745.29300	107.36596	-796.98097	772.11721	71.31948	-580.19950	860.39521	47.40015	-637.70726	741.65617	1504.92792	-731.92639	471.67110	1514.24042	-719.31955	592.87936	1450.31347	-619.14270	603.69784	1516.76984	-771.40732	754.62246	1468.79920	-660.08375	761.74223	1441.15699	-798.38244	471.23519	1473.31417	-655.80177	433.23897	1456.35065	-783.28248	347.46181	1459.03490	-696.33751	318.82255	1379.98403	-678.87014	260.11733	1415.07194	-599.55278	206.67446	1375.47058	-570.00634	245.93524	1318.90426	-563.09515	864.34120	1429.39671	-726.45840	881.20565	1354.08882	-705.78520	947.97820	1401.90347	-656.62483	1016.04279	1366.02264	-619.11582	985.29768	1307.94936	-609.69497	159.51684	1401.36817	-468.41323	140.93029	1370.99475	-326.75912	95.51961	1333.21203	-367.40116	1055.81619	1390.91572	-515.11893	1116.34051	1336.13552	-380.96172	1164.12080	1314.98275	-428.40602	504.57985	938.44002	-656.93443	680.85658	948.87104	-675.46004	
224	2.24000	725.13312	1022.89510	-613.79959	480.22086	1026.74215	-606.00344	646.06390	1045.93152	-776.03297	549.03307	1043.95451	-776.23478	405.57988	788.03559	-680.53635	410.40487	699.40851	-630.49109	418.98099	611.22291	-702.11759	415.71322	515.91671	-724.04042	523.35748	492.60324	-691.79979	787.78116	827.09299	-667.99604	789.27924	719.84620	-626.65849	781.35641	613.67276	-696.55335	783.85990	527.65675	-687.85937	671.40337	507.63673	-683.07490	449.86770	388.22069	-679.69156	399.39244	322.06436	-728.19309	446.54016	203.08098	-705.49965	411.65655	126.07679	-764.50130	484.73879	138.14511	-729.65466	750.30872	405.84414	-662.74096	808.09017	338.63493	-729.61702	761.84592	219.65438	-688.58546	728.41955	132.84543	-694.74866	799.84464	120.04377	-748.31173	466.65176	108.51026	-813.03541	464.97015	70.96534	-593.03851	367.94546	45.91533	-644.18181	745.27080	107.35929	-796.99939	772.03765	71.34774	-580.18849	860.34828	47.41851	-637.73688	742.21347	1504.75922	-732.02682	471.12817	1513.49674	-719.12301	592.93619	1450.01577	-619.04272	603.74675	1516.84549	-771.58280	755.20051	1467.05816	-660.74117	761.79888	1440.88327	-798.18837	470.55915	1472.28105	-655.57825	433.02161	1455.56665	-782.97705	347.22558	1454.48504	-696.47291	320.49253	1374.45673	-680.16132	260.67104	1405.96397	-600.94875	208.29310	1364.21403	-572.33514	249.09347	1308.18445	-567.25061	863.99311	1425.94936	-726.92852	879.28456	1349.55037	-707.45541	947.11274	1394.79698	-657.91573	1014.35169	1356.31127	-621.80637	982.08581	1298.57688	-613.21853	161.03487	1385.99793	-470.00487	144.09941	1350.95274	-329.18612	99.69985	1313.20329	-370.48106	1053.63246	1377.61947	-516.22539	1111.05586	1318.44825	-382.71321	1158.57328	1296.88537	-429.02513	504.69345	938.43139	-656.82240	680.95002	948.87934	-675.52881	
225	2.25000	725.32997	1022.86943	-613.81502	480.40667	1026.72706	-605.91183	646.08037	1045.93979	-775.93330	549.01286	1043.98337	-776.05294	405.63159	788.01771	-680.32076	410.55917	699.41839	-630.27133	419.01770	611.22923	-701.92252	415.74264	515.97133	-723.96037	523.40114	492.59773	-691.70368	787.88899	827.07326	-667.99814	789.38512	719.87498	-626.70382	781.40041	613.64527	-696.51704	783.91199	527.64178	-687.91124	671.46071	507.62796	-683.17313	449.92008	388.21078	-679.63438	399.43476	322.04784	-728.11650	446.59814	203.07146	-705.47995	411.59337	126.08000	-764.44453	484.71375	138.13746	-729.62143	750.39739	405.84872	-662.79970	808.11121	338.60850	-729.66914	761.85159	219.64052	-688.65262	728.39932	132.81500	-694.73170	799.82623	120.00834	-748.29030	466.62125	108.52426	-813.03592	464.93309	70.97224	-593.01133	367.88163	45.93366	-644.15285	745.25843	107.34394	-797.02899	771.95397	71.38947	-580.14414	860.31584	47.39342	-637.69600	742.71959	1504.63801	-731.74883	470.52246	1512.72530	-718.58654	593.02957	1449.72240	-618.88661	603.60680	1516.86277	-771.67009	755.76259	1465.63620	-660.92546	761.85801	1440.67649	-797.97916	470.00033	1470.99559	-655.30687	432.86161	1454.68321	-782.61115	347.23413	1449.86144	-696.52388	322.17267	1368.86993	-681.82208	261.46721	1396.73758	-602.53464	210.17718	1352.84824	-575.01544	252.47599	1297.46254	-571.75860	863.62699	1422.52310	-727.70460	877.23513	1345.20007	-709.28105	946.10948	1387.70748	-659.58378	1012.33946	1346.47106	-624.83350	978.41163	1289.37561	-616.80093	163.07827	1370.48920	-471.92100	147.88653	1331.01679	-332.11893	104.17553	1293.45525	-373.97811	1051.00226	1364.06343	-517.66446	1105.09161	1300.56506	-384.83224	1152.31201	1278.56627	-430.31064	504.83406	938.41782	-656.66503	681.06796	948.87818	-675.57539	
226	2.26000	725.54677	1022.82012	-613.74826	480.62817	1026.70356	-605.75182	646.12756	1045.95213	-775.85478	549.03801	1044.02327	-775.90741	405.71871	787.99877	-680.08415	410.75721	699.40606	-630.09616	419.11883	611.23915	-701.78310	415.78560	515.97444	-723.69866	523.47332	492.57912	-691.62411	787.99774	827.03886	-667.98675	789.45914	719.84419	-626.78922	781.46164	613.61295	-696.52880	783.98245	527.60612	-687.96226	671.51777	507.58956	-683.26170	449.96915	388.15790	-679.58524	399.48533	322.01377	-728.01738	446.65000	203.02066	-705.46790	411.55901	126.08547	-764.40970	484.70864	138.13236	-729.59519	750.50298	405.83959	-662.85077	808.13820	338.57251	-729.73798	761.85806	219.62351	-688.72734	728.38259	132.76999	-694.69724	799.81132	119.95833	-748.25139	466.60763	108.53515	-813.03956	464.90501	70.96811	-592.98719	367.85242	45.91867	-644.12509	745.24898	107.32020	-797.05358	771.90070	71.42606	-580.09200	860.30102	47.34203	-637.61876	743.25042	1504.51898	-731.18331	469.82996	1511.99905	-717.59912	593.15184	1449.42671	-618.67664	603.35114	1516.83216	-771.61094	756.40038	1464.53873	-660.70241	761.92786	1440.49909	-797.77584	469.51234	1469.47219	-654.99013	432.74398	1453.79500	-782.17037	347.42860	1445.30125	-696.40244	323.85300	1363.16418	-683.87683	262.52983	1387.34698	-604.32314	212.39822	1341.30992	-578.08429	256.13083	1286.74523	-576.51802	863.15765	1419.08419	-728.46243	875.07104	1341.02326	-711.29491	944.89635	1380.55664	-661.43160	1009.93236	1336.49187	-627.69488	974.34550	1280.22743	-620.62222	165.62966	1354.83662	-474.22056	152.26434	1311.29805	-335.58667	109.07511	1273.94891	-378.01823	1047.92283	1350.32462	-519.40079	1098.46466	1282.81670	-387.12920	1145.38845	1259.95301	-432.58544	504.99915	938.40204	-656.47996	681.21215	948.86421	-675.58070	
